<svg width="14" height="14" viewBox="0 0 14 14" fill="none" xmlns="http://www.w3.org/2000/svg">
<path d="M5.29774 14C5.64713 14 5.92339 13.8444 6.1184 13.5413L13.7969 1.35167C13.9431 1.1141 14 0.933879 14 0.745465C14 0.294909 13.7075 0 13.2606 0C12.9356 0 12.7568 0.106495 12.5618 0.417788L5.26523 12.1404L1.47882 7.14336C1.27568 6.85664 1.07255 6.74195 0.780035 6.74195C0.316889 6.74195 0 7.06144 0 7.512C0 7.70041 0.0812536 7.9134 0.235636 8.11001L4.4527 13.5249C4.69646 13.8444 4.94835 14 5.29774 14Z" fill="#5AAB4C"/>
</svg>
