<svg width="15" height="15" viewBox="0 0 15 15" fill="none" xmlns="http://www.w3.org/2000/svg">
<path d="M1.03136 12.7352C0.611464 13.1551 0.602894 13.9006 1.03993 14.3377C1.48553 14.7747 2.23105 14.7661 2.64237 14.3548L7.71536 9.2818L12.7798 14.3462C13.2082 14.7747 13.9452 14.7747 14.3822 14.3377C14.8193 13.8921 14.8193 13.1637 14.3908 12.7352L9.32638 7.67079L14.3908 2.5978C14.8193 2.16934 14.8278 1.43239 14.3822 0.995356C13.9452 0.558325 13.2082 0.558325 12.7798 0.986787L7.71536 6.0512L2.64237 0.986787C2.23105 0.566895 1.47696 0.549756 1.03993 0.995356C0.602894 1.43239 0.611464 2.18648 1.03136 2.5978L6.09578 7.67079L1.03136 12.7352Z" fill="#474441"/>
</svg>
