<svg width="6" height="7" viewBox="0 0 6 7" fill="none" xmlns="http://www.w3.org/2000/svg">
<path d="M0.135884 5.6723C-0.0440704 5.85225 -0.0477429 6.17176 0.139556 6.35906C0.330528 6.54636 0.650038 6.54269 0.82632 6.36641L3.00046 4.19227L5.17093 6.36274C5.35455 6.54636 5.67039 6.54636 5.85769 6.35906C6.04499 6.16809 6.04499 5.85593 5.86136 5.6723L3.6909 3.50184L5.86136 1.3277C6.04499 1.14407 6.04866 0.828236 5.85769 0.640937C5.67039 0.453638 5.35455 0.453638 5.17093 0.637264L3.00046 2.80773L0.82632 0.637264C0.650038 0.45731 0.326855 0.449965 0.139556 0.640937C-0.0477429 0.828236 -0.0440704 1.15142 0.135884 1.3277L2.30635 3.50184L0.135884 5.6723Z" fill="#3C3C43" fill-opacity="0.6"/>
</svg>
