<svg width="25" height="18" viewBox="0 0 25 18" fill="none" xmlns="http://www.w3.org/2000/svg">
<path d="M11.7143 7.99984C11.162 7.99984 10.7143 8.44755 10.7143 8.99984C10.7143 9.55212 11.162 9.99984 11.7143 9.99984V7.99984ZM23.7143 9.99984C24.2666 9.99984 24.7143 9.55212 24.7143 8.99984C24.7143 8.44755 24.2666 7.99984 23.7143 7.99984V9.99984ZM1.71429 0.666504C1.16201 0.666504 0.714294 1.11422 0.714294 1.6665C0.714294 2.21879 1.16201 2.6665 1.71429 2.6665V0.666504ZM23.7143 2.6665C24.2666 2.6665 24.7143 2.21879 24.7143 1.6665C24.7143 1.11422 24.2666 0.666504 23.7143 0.666504V2.6665ZM1.71429 15.3332C1.16201 15.3332 0.714294 15.7809 0.714294 16.3332C0.714294 16.8855 1.16201 17.3332 1.71429 17.3332V15.3332ZM23.7143 17.3332C24.2666 17.3332 24.7143 16.8855 24.7143 16.3332C24.7143 15.7809 24.2666 15.3332 23.7143 15.3332V17.3332ZM11.7143 9.99984H23.7143V7.99984H11.7143V9.99984ZM1.71429 2.6665H23.7143V0.666504H1.71429V2.6665ZM1.71429 17.3332H23.7143V15.3332H1.71429V17.3332Z" fill="#474441"/>
</svg>
