<svg width="20" height="20" viewBox="0 0 20 20" fill="none" xmlns="http://www.w3.org/2000/svg">
<path d="M9.99982 7C9.20417 7 8.44111 7.31607 7.8785 7.87868C7.31589 8.44129 6.99982 9.20435 6.99982 10C6.99982 10.7957 7.31589 11.5587 7.8785 12.1213C8.44111 12.6839 9.20417 13 9.99982 13C10.7955 13 11.5585 12.6839 12.1211 12.1213C12.6837 11.5587 12.9998 10.7957 12.9998 10C12.9998 9.20435 12.6837 8.44129 12.1211 7.87868C11.5585 7.31607 10.7955 7 9.99982 7ZM9.99982 5C11.3259 5 12.5977 5.52678 13.5354 6.46447C14.473 7.40215 14.9998 8.67392 14.9998 10C14.9998 11.3261 14.473 12.5979 13.5354 13.5355C12.5977 14.4732 11.3259 15 9.99982 15C8.67374 15 7.40197 14.4732 6.46428 13.5355C5.5266 12.5979 4.99982 11.3261 4.99982 10C4.99982 8.67392 5.5266 7.40215 6.46428 6.46447C7.40197 5.52678 8.67374 5 9.99982 5ZM16.4998 4.75C16.4998 5.08152 16.3681 5.39946 16.1337 5.63388C15.8993 5.8683 15.5813 6 15.2498 6C14.9183 6 14.6004 5.8683 14.3659 5.63388C14.1315 5.39946 13.9998 5.08152 13.9998 4.75C13.9998 4.41848 14.1315 4.10054 14.3659 3.86612C14.6004 3.6317 14.9183 3.5 15.2498 3.5C15.5813 3.5 15.8993 3.6317 16.1337 3.86612C16.3681 4.10054 16.4998 4.41848 16.4998 4.75ZM9.99982 2C7.52582 2 7.12182 2.007 5.97082 2.058C5.18682 2.095 4.66082 2.2 4.17282 2.39C3.73882 2.558 3.42582 2.759 3.09282 3.093C2.77982 3.3954 2.53917 3.76458 2.38882 4.173C2.19882 4.663 2.09382 5.188 2.05782 5.971C2.00582 7.075 1.99982 7.461 1.99982 10C1.99982 12.474 2.00682 12.878 2.05782 14.029C2.09482 14.812 2.19982 15.339 2.38882 15.826C2.55882 16.261 2.75882 16.574 3.09082 16.906C3.42782 17.242 3.74082 17.443 4.17082 17.609C4.66482 17.8 5.19082 17.906 5.97082 17.942C7.07482 17.994 7.46082 18 9.99982 18C12.4738 18 12.8778 17.993 14.0288 17.942C14.8108 17.905 15.3378 17.8 15.8258 17.611C16.2588 17.442 16.5738 17.241 16.9058 16.909C17.2428 16.572 17.4438 16.259 17.6098 15.829C17.7998 15.336 17.9058 14.809 17.9418 14.029C17.9938 12.925 17.9998 12.539 17.9998 10C17.9998 7.526 17.9928 7.122 17.9418 5.971C17.9048 5.189 17.7998 4.661 17.6098 4.173C17.4591 3.765 17.2189 3.39596 16.9068 3.093C16.6046 2.77985 16.2353 2.53917 15.8268 2.389C15.3368 2.199 14.8108 2.094 14.0288 2.058C12.9248 2.006 12.5388 2 9.99982 2ZM9.99982 0C12.7168 0 13.0558 0.00999994 14.1218 0.06C15.1868 0.11 15.9118 0.277 16.5498 0.525C17.2098 0.779 17.7658 1.123 18.3218 1.678C18.8303 2.1779 19.2238 2.78259 19.4748 3.45C19.7218 4.087 19.8898 4.813 19.9398 5.878C19.9868 6.944 19.9998 7.283 19.9998 10C19.9998 12.717 19.9898 13.056 19.9398 14.122C19.8898 15.187 19.7218 15.912 19.4748 16.55C19.2245 17.2178 18.8309 17.8226 18.3218 18.322C17.8218 18.8303 17.2171 19.2238 16.5498 19.475C15.9128 19.722 15.1868 19.89 14.1218 19.94C13.0558 19.987 12.7168 20 9.99982 20C7.28282 20 6.94382 19.99 5.87782 19.94C4.81282 19.89 4.08782 19.722 3.44982 19.475C2.78214 19.2245 2.17734 18.8309 1.67782 18.322C1.16922 17.8222 0.775748 17.2175 0.524817 16.55C0.276817 15.913 0.109817 15.187 0.0598168 14.122C0.0128168 13.056 -0.000183105 12.717 -0.000183105 10C-0.000183105 7.283 0.00981684 6.944 0.0598168 5.878C0.109817 4.812 0.276817 4.088 0.524817 3.45C0.775053 2.78218 1.16862 2.17732 1.67782 1.678C2.17749 1.16923 2.78225 0.775729 3.44982 0.525C4.08782 0.277 4.81182 0.11 5.87782 0.06C6.94382 0.0129999 7.28282 0 9.99982 0Z" fill="black"/>
</svg>
