<svg width="15" height="15" viewBox="0 0 15 15" fill="none" xmlns="http://www.w3.org/2000/svg">
<path d="M14.5759 14.7945C13.7206 14.7732 12.8857 14.7732 12.0304 14.7945C11.8471 14.7945 11.8064 14.7519 11.8064 14.5602C11.8064 12.984 11.8064 11.3865 11.8064 9.8103C11.8064 9.44821 11.786 9.08611 11.6842 8.74531C11.3787 7.63772 10.1569 7.23303 9.28123 7.97852C8.81285 8.36192 8.62957 8.89441 8.62957 9.53341C8.62957 11.0244 8.62957 12.5154 8.62957 14.0064C8.62957 14.1981 8.60921 14.3898 8.62957 14.6028C8.64994 14.7732 8.56848 14.8158 8.42593 14.7945C7.55027 14.7945 6.69497 14.7945 5.8193 14.7945C5.65639 14.7945 5.61566 14.7519 5.61566 14.5815C5.63603 13.2396 5.63603 11.8977 5.63603 10.5345C5.63603 8.87311 5.63603 7.21173 5.61566 5.57164C5.61566 5.37994 5.65639 5.33734 5.8193 5.33734C6.69497 5.33734 7.55027 5.33734 8.42593 5.33734C8.58884 5.33734 8.62957 5.37994 8.62957 5.55034C8.62957 5.89114 8.62957 6.23194 8.62957 6.63663C8.69066 6.57273 8.71103 6.55143 8.73139 6.53013C9.5256 5.31604 10.6456 4.97525 11.9693 5.18825C13.4966 5.44384 14.4741 6.55143 14.7185 8.25542C14.7796 8.66011 14.7999 9.06481 14.7999 9.46951C14.7999 11.1735 14.7999 12.8562 14.7999 14.5602C14.7999 14.7306 14.7592 14.7945 14.5759 14.7945Z" fill="black"/>
<path d="M3.98677 10.0684C3.98677 11.5594 3.98677 13.0504 3.98677 14.5414C3.98677 14.7331 3.94604 14.797 3.76276 14.797C2.90747 14.7757 2.05217 14.797 1.19687 14.797C1.03395 14.797 0.993225 14.7544 0.993225 14.584C0.993225 11.5807 0.993225 8.55611 0.993225 5.55284C0.993225 5.40374 1.03395 5.33984 1.19687 5.33984C2.07253 5.33984 2.94819 5.33984 3.82386 5.33984C4.00713 5.33984 4.0275 5.40374 4.0275 5.57414C3.98677 7.06513 3.98677 8.55611 3.98677 10.0684Z" fill="black"/>
<path d="M4.12909 2.86771C3.92545 3.7197 3.09051 4.20959 2.13339 4.03919C1.11518 3.8688 0.544981 2.82511 0.911537 1.80272C1.15591 1.16372 1.74647 0.780325 2.49995 0.801625C3.64035 0.780325 4.39382 1.73882 4.12909 2.86771Z" fill="black"/>
</svg>
