<svg fill="#ffffff" width="118" height="56" viewBox="0 0 118 56" xmlns="http://www.w3.org/2000/svg">
<path d="M11.373 34.4395C13.5059 34.4395 15.334 34.1172 16.8574 33.4727C18.3926 32.8164 19.5645 31.8965 20.373 30.7129C21.1934 29.5176 21.6035 28.1055 21.6035 26.4766V26.459C21.6035 24.4668 20.9824 22.9023 19.7402 21.7656C18.5098 20.6172 16.5645 19.7793 13.9043 19.252L11.2148 18.707C9.76172 18.4141 8.69531 18.0215 8.01562 17.5293C7.33594 17.0371 6.99609 16.3926 6.99609 15.5957V15.5781C6.99609 14.9687 7.16602 14.4355 7.50586 13.9785C7.85742 13.5215 8.36133 13.1641 9.01758 12.9062C9.67383 12.6367 10.4531 12.502 11.3555 12.502C12.2344 12.502 13.0078 12.6309 13.6758 12.8887C14.3555 13.1465 14.9004 13.5156 15.3105 13.9961C15.7207 14.4648 15.9727 15.0332 16.0664 15.7012L16.084 15.9121H21.0938L21.0762 15.5781C20.9941 14.1016 20.5547 12.8066 19.7578 11.6934C18.9609 10.5801 17.8477 9.71875 16.418 9.10938C15 8.5 13.3125 8.19531 11.3555 8.19531C9.48047 8.19531 7.81641 8.51758 6.36328 9.16211C4.91016 9.79492 3.76758 10.6914 2.93555 11.8516C2.10352 13 1.6875 14.3477 1.6875 15.8945V15.9121C1.6875 17.8223 2.32031 19.375 3.58594 20.5703C4.85156 21.7656 6.73242 22.6152 9.22852 23.1191L11.9004 23.6465C13.4824 23.9746 14.6074 24.3848 15.2754 24.877C15.9551 25.3574 16.2949 26.0254 16.2949 26.8809V26.8984C16.2949 27.543 16.0957 28.1113 15.6973 28.6035C15.3105 29.084 14.7598 29.459 14.0449 29.7285C13.3418 29.9863 12.498 30.1152 11.5137 30.1152C10.5527 30.1152 9.69141 29.9863 8.92969 29.7285C8.16797 29.459 7.54688 29.0898 7.06641 28.6211C6.59766 28.1406 6.30469 27.5723 6.1875 26.916L6.15234 26.7227H1.14258L1.16016 27.0039C1.26562 28.5625 1.74609 29.8984 2.60156 31.0117C3.45703 32.1133 4.62891 32.9629 6.11719 33.5605C7.61719 34.1465 9.36914 34.4395 11.373 34.4395ZM29.9355 34H35.1211L39.7969 17.002H39.9023L44.5605 34H49.7461L56.4785 8.63477H50.9766L46.9512 26.8105H46.8457L42.1699 8.63477H37.5117L32.8359 26.8105H32.7305L28.7227 8.63477H23.2207L29.9355 34ZM59.3438 34H76.1484V29.623H64.6523V23.2422H75.498V19.0938H64.6523V13.0117H76.1484V8.63477H59.3438V34ZM79.9805 34H96.3809V29.623H85.2891V8.63477H79.9805V34ZM99.5273 34H115.928V29.623H104.836V8.63477H99.5273V34Z" fill="#2073AC"/>
<path d="M2.29688 52H3.65625V43.5781H2.29688V52ZM2.98438 41.9531C3.24479 41.9531 3.46615 41.862 3.64844 41.6797C3.83073 41.4922 3.92188 41.2708 3.92188 41.0156C3.92188 40.7552 3.83073 40.5339 3.64844 40.3516C3.46615 40.1693 3.24479 40.0781 2.98438 40.0781C2.72917 40.0781 2.50781 40.1693 2.32031 40.3516C2.13802 40.5339 2.04688 40.7552 2.04688 41.0156C2.04688 41.2708 2.13802 41.4922 2.32031 41.6797C2.50781 41.862 2.72917 41.9531 2.98438 41.9531ZM9.89875 52H11.2581V47.0156C11.2581 46.5208 11.3467 46.0964 11.5238 45.7422C11.706 45.388 11.9613 45.1146 12.2894 44.9219C12.6175 44.7292 13.0055 44.6328 13.4534 44.6328C14.1253 44.6328 14.6201 44.8177 14.9378 45.1875C15.2607 45.5521 15.4222 46.1146 15.4222 46.875V52H16.7816V46.5469C16.7816 45.5469 16.5264 44.7786 16.0159 44.2422C15.5107 43.7005 14.7842 43.4297 13.8363 43.4297C13.2165 43.4297 12.706 43.5547 12.305 43.8047C11.904 44.0495 11.5967 44.3958 11.3831 44.8438H11.2581V43.5781H9.89875V52ZM25.9147 52.0625C26.0501 52.0625 26.1829 52.0547 26.3131 52.0391C26.4433 52.0234 26.5735 52.0052 26.7038 51.9844V50.8281C26.5788 50.8385 26.472 50.8464 26.3834 50.8516C26.3001 50.8568 26.1985 50.8594 26.0788 50.8594C25.6413 50.8594 25.3288 50.7526 25.1413 50.5391C24.9538 50.3203 24.86 49.9635 24.86 49.4688V44.7031H26.7038V43.5781H24.86V41.3984H23.4538V43.5781H22.1256V44.7031H23.4538V49.8125C23.4538 50.6146 23.6465 51.1901 24.0319 51.5391C24.4225 51.888 25.0501 52.0625 25.9147 52.0625ZM35.7431 52.1484C36.2379 52.1484 36.6832 52.0859 37.0791 51.9609C37.4801 51.8307 37.8265 51.6589 38.1181 51.4453C38.4098 51.2266 38.6468 50.9844 38.8291 50.7188C39.0166 50.4479 39.1468 50.1693 39.2197 49.8828L39.2353 49.8203H37.8759L37.8447 49.8906C37.7718 50.0573 37.6442 50.2214 37.4619 50.3828C37.2796 50.5443 37.0478 50.6771 36.7666 50.7812C36.4853 50.8854 36.1546 50.9375 35.7744 50.9375C35.264 50.9375 34.8213 50.8255 34.4463 50.6016C34.0713 50.3724 33.7822 50.0469 33.5791 49.625C33.3759 49.1979 33.2744 48.6849 33.2744 48.0859V47.5469C33.2744 46.9167 33.3785 46.3854 33.5869 45.9531C33.7952 45.5208 34.0765 45.1953 34.4306 44.9766C34.79 44.7526 35.1963 44.6406 35.6494 44.6406C36.1025 44.6406 36.5035 44.7474 36.8525 44.9609C37.2015 45.1693 37.4749 45.487 37.6728 45.9141C37.8707 46.3411 37.9697 46.8854 37.9697 47.5469V48.0859L38.6416 47.0938H32.5869V48.1797H39.3369V47.6484C39.3369 46.8099 39.1884 46.0755 38.8916 45.4453C38.5999 44.8099 38.178 44.3151 37.6259 43.9609C37.0791 43.6068 36.4228 43.4297 35.6572 43.4297C34.8968 43.4297 34.2327 43.6146 33.665 43.9844C33.0973 44.3542 32.6572 44.8672 32.3447 45.5234C32.0374 46.1797 31.8838 46.9427 31.8838 47.8125V47.8203C31.8838 48.7005 32.0374 49.4661 32.3447 50.1172C32.6572 50.763 33.0999 51.263 33.6728 51.6172C34.2509 51.9714 34.941 52.1484 35.7431 52.1484ZM45.1263 52H46.4856V46.7812C46.4856 46.3698 46.5794 46.0104 46.7669 45.7031C46.9596 45.3958 47.2226 45.1562 47.5559 44.9844C47.8893 44.8125 48.2721 44.7266 48.7044 44.7266C48.8554 44.7266 48.996 44.7344 49.1263 44.75C49.2617 44.7604 49.3997 44.7786 49.5403 44.8047V43.4844C49.4726 43.474 49.3736 43.4635 49.2434 43.4531C49.1184 43.4375 48.9908 43.4297 48.8606 43.4297C48.2929 43.4297 47.8164 43.5521 47.4309 43.7969C47.0455 44.0417 46.7721 44.3854 46.6106 44.8281H46.4856V43.5781H45.1263V52ZM57.2125 52.1484C57.5927 52.1484 57.9417 52.0964 58.2594 51.9922C58.5771 51.8828 58.8609 51.724 59.1109 51.5156C59.3661 51.3073 59.5823 51.0547 59.7594 50.7578H59.8844V52H61.2438V46.2344C61.2438 45.651 61.1188 45.151 60.8688 44.7344C60.624 44.3125 60.262 43.9896 59.7828 43.7656C59.3089 43.5417 58.7281 43.4297 58.0406 43.4297C57.4417 43.4297 56.9078 43.5234 56.4391 43.7109C55.9703 43.8932 55.5875 44.151 55.2906 44.4844C54.999 44.8125 54.8167 45.1979 54.7438 45.6406L54.7359 45.6875H56.0953L56.1031 45.6641C56.2125 45.3359 56.4286 45.0833 56.7516 44.9062C57.0745 44.724 57.4885 44.6328 57.9938 44.6328C58.624 44.6328 59.0953 44.7708 59.4078 45.0469C59.7255 45.3177 59.8844 45.7135 59.8844 46.2344V48.8594C59.8844 49.2604 59.7802 49.6198 59.5719 49.9375C59.3688 50.2552 59.0875 50.5078 58.7281 50.6953C58.3688 50.8776 57.9573 50.9688 57.4938 50.9688C57.0042 50.9688 56.5979 50.8516 56.275 50.6172C55.9521 50.3776 55.7906 50.0443 55.7906 49.6172V49.6016C55.7906 49.1849 55.9365 48.862 56.2281 48.6328C56.525 48.4036 56.9938 48.2708 57.6344 48.2344L60.5641 48.0469V46.9609L57.4703 47.1484C56.4911 47.2057 55.7333 47.4479 55.1969 47.875C54.6656 48.2969 54.4 48.8828 54.4 49.6328V49.6484C54.4 50.1589 54.5224 50.6016 54.7672 50.9766C55.0172 51.3516 55.3531 51.6406 55.775 51.8438C56.2021 52.0469 56.6813 52.1484 57.2125 52.1484ZM70.8534 52.1484C71.5305 52.1484 72.1086 52.0365 72.5878 51.8125C73.067 51.5885 73.4524 51.2812 73.7441 50.8906C74.0357 50.4948 74.2389 50.0443 74.3534 49.5391L74.3691 49.4531L73.0253 49.4609L73.0097 49.5078C72.8534 49.9766 72.5956 50.3333 72.2363 50.5781C71.8769 50.8229 71.4133 50.9453 70.8456 50.9453C70.3456 50.9453 69.9107 50.8151 69.5409 50.5547C69.1711 50.2943 68.8847 49.9271 68.6816 49.4531C68.4784 48.974 68.3769 48.4115 68.3769 47.7656V47.75C68.3769 47.1146 68.4758 46.5651 68.6738 46.1016C68.8769 45.6328 69.1633 45.2708 69.5331 45.0156C69.9029 44.7604 70.3404 44.6328 70.8456 44.6328C71.4498 44.6328 71.9368 44.7786 72.3066 45.0703C72.6764 45.362 72.9133 45.7161 73.0175 46.1328L73.0253 46.1562H74.3769L74.3691 46.1094C74.2857 45.6094 74.0956 45.1589 73.7988 44.7578C73.5019 44.3516 73.106 44.0286 72.6113 43.7891C72.1165 43.5495 71.5279 43.4297 70.8456 43.4297C70.0592 43.4297 69.3769 43.6094 68.7988 43.9688C68.2206 44.3229 67.7727 44.8229 67.455 45.4688C67.1425 46.1146 66.9863 46.875 66.9863 47.75V47.7656C66.9863 48.6562 67.1451 49.4297 67.4628 50.0859C67.7805 50.7422 68.2284 51.25 68.8066 51.6094C69.3847 51.9688 70.067 52.1484 70.8534 52.1484ZM83.1897 52.0625C83.3251 52.0625 83.4579 52.0547 83.5881 52.0391C83.7183 52.0234 83.8485 52.0052 83.9788 51.9844V50.8281C83.8538 50.8385 83.747 50.8464 83.6584 50.8516C83.5751 50.8568 83.4735 50.8594 83.3538 50.8594C82.9163 50.8594 82.6038 50.7526 82.4163 50.5391C82.2288 50.3203 82.135 49.9635 82.135 49.4688V44.7031H83.9788V43.5781H82.135V41.3984H80.7288V43.5781H79.4006V44.7031H80.7288V49.8125C80.7288 50.6146 80.9215 51.1901 81.3069 51.5391C81.6975 51.888 82.3251 52.0625 83.1897 52.0625ZM89.7213 52H91.0806V43.5781H89.7213V52ZM90.4088 41.9531C90.6692 41.9531 90.8905 41.862 91.0728 41.6797C91.2551 41.4922 91.3463 41.2708 91.3463 41.0156C91.3463 40.7552 91.2551 40.5339 91.0728 40.3516C90.8905 40.1693 90.6692 40.0781 90.4088 40.0781C90.1535 40.0781 89.9322 40.1693 89.7447 40.3516C89.5624 40.5339 89.4713 40.7552 89.4713 41.0156C89.4713 41.2708 89.5624 41.4922 89.7447 41.6797C89.9322 41.862 90.1535 41.9531 90.4088 41.9531ZM99.7059 52H101.081L104.198 43.5781H102.761L100.456 50.5156H100.331L98.0263 43.5781H96.5888L99.7059 52ZM112.8 52.1484C113.295 52.1484 113.74 52.0859 114.136 51.9609C114.537 51.8307 114.883 51.6589 115.175 51.4453C115.467 51.2266 115.704 50.9844 115.886 50.7188C116.073 50.4479 116.204 50.1693 116.277 49.8828L116.292 49.8203H114.933L114.902 49.8906C114.829 50.0573 114.701 50.2214 114.519 50.3828C114.336 50.5443 114.105 50.6771 113.823 50.7812C113.542 50.8854 113.211 50.9375 112.831 50.9375C112.321 50.9375 111.878 50.8255 111.503 50.6016C111.128 50.3724 110.839 50.0469 110.636 49.625C110.433 49.1979 110.331 48.6849 110.331 48.0859V47.5469C110.331 46.9167 110.435 46.3854 110.644 45.9531C110.852 45.5208 111.133 45.1953 111.488 44.9766C111.847 44.7526 112.253 44.6406 112.706 44.6406C113.159 44.6406 113.56 44.7474 113.909 44.9609C114.258 45.1693 114.532 45.487 114.73 45.9141C114.928 46.3411 115.027 46.8854 115.027 47.5469V48.0859L115.698 47.0938H109.644V48.1797H116.394V47.6484C116.394 46.8099 116.245 46.0755 115.948 45.4453C115.657 44.8099 115.235 44.3151 114.683 43.9609C114.136 43.6068 113.48 43.4297 112.714 43.4297C111.954 43.4297 111.29 43.6146 110.722 43.9844C110.154 44.3542 109.714 44.8672 109.402 45.5234C109.094 46.1797 108.941 46.9427 108.941 47.8125V47.8203C108.941 48.7005 109.094 49.4661 109.402 50.1172C109.714 50.763 110.157 51.263 110.73 51.6172C111.308 51.9714 111.998 52.1484 112.8 52.1484Z" fill="#2073AC"/>
</svg>
