<svg width="18" height="18" viewBox="0 0 18 18" fill="none" xmlns="http://www.w3.org/2000/svg">
<mask id="path-1-inside-1_1267_123" fill="white">
<path d="M12.5 11H11.71L11.43 10.73C12.41 9.59 13 8.11 13 6.5C13 2.91 10.09 0 6.5 0C2.91 0 0 2.91 0 6.5C0 10.09 2.91 13 6.5 13C8.11 13 9.59 12.41 10.73 11.43L11 11.71V12.5L16 17.49L17.49 16L12.5 11ZM6.5 11C4.01 11 2 8.99 2 6.5C2 4.01 4.01 2 6.5 2C8.99 2 11 4.01 11 6.5C11 8.99 8.99 11 6.5 11Z"/>
</mask>
<path d="M12.5 11H11.71L11.43 10.73C12.41 9.59 13 8.11 13 6.5C13 2.91 10.09 0 6.5 0C2.91 0 0 2.91 0 6.5C0 10.09 2.91 13 6.5 13C8.11 13 9.59 12.41 10.73 11.43L11 11.71V12.5L16 17.49L17.49 16L12.5 11ZM6.5 11C4.01 11 2 8.99 2 6.5C2 4.01 4.01 2 6.5 2C8.99 2 11 4.01 11 6.5C11 8.99 8.99 11 6.5 11Z" fill="black"/>
<path d="M11.71 11L4.76863 18.1984L7.67395 21H11.71V11ZM11.43 10.73L3.84683 4.21114L-2.30973 11.3729L4.48864 17.9284L11.43 10.73ZM10.73 11.43L17.9284 4.48864L11.3729 -2.30973L4.21114 3.84683L10.73 11.43ZM11 11.71H21V7.67395L18.1984 4.76863L11 11.71ZM11 12.5H1V16.648L3.93601 19.5781L11 12.5ZM16 17.49L8.93601 24.5681L16.0071 31.6251L23.0711 24.5611L16 17.49ZM17.49 16L24.5611 23.0711L31.6251 16.0071L24.5681 8.93601L17.49 16ZM12.5 1H11.71V21H12.5V1ZM18.6514 3.80157L18.3714 3.53157L4.48864 17.9284L4.76863 18.1984L18.6514 3.80157ZM19.0132 17.2489C21.4907 14.3668 23 10.5953 23 6.5H3C3 5.62474 3.32931 4.81316 3.84683 4.21114L19.0132 17.2489ZM23 6.5C23 -2.61285 15.6128 -10 6.5 -10V10C4.56715 10 3 8.43285 3 6.5H23ZM6.5 -10C-2.61285 -10 -10 -2.61285 -10 6.5H10C10 8.43285 8.43285 10 6.5 10V-10ZM-10 6.5C-10 15.6128 -2.61285 23 6.5 23V3C8.43285 3 10 4.56715 10 6.5H-10ZM6.5 23C10.5953 23 14.3668 21.4907 17.2489 19.0132L4.21114 3.84683C4.81316 3.32931 5.62474 3 6.5 3V23ZM3.53157 18.3714L3.80157 18.6514L18.1984 4.76863L17.9284 4.48864L3.53157 18.3714ZM1 11.71V12.5H21V11.71H1ZM3.93601 19.5781L8.93601 24.5681L23.064 10.4119L18.064 5.42186L3.93601 19.5781ZM23.0711 24.5611L24.5611 23.0711L10.4189 8.92893L8.92893 10.4189L23.0711 24.5611ZM24.5681 8.93601L19.5781 3.93601L5.42186 18.064L10.4119 23.064L24.5681 8.93601ZM6.5 1C9.53285 1 12 3.46715 12 6.5H-8C-8 14.5128 -1.51285 21 6.5 21V1ZM12 6.5C12 9.53285 9.53285 12 6.5 12V-8C-1.51285 -8 -8 -1.51285 -8 6.5H12ZM6.5 12C3.46715 12 1 9.53285 1 6.5H21C21 -1.51285 14.5128 -8 6.5 -8V12ZM1 6.5C1 3.46715 3.46715 1 6.5 1V21C14.5128 21 21 14.5128 21 6.5H1Z" fill="black" mask="url(#path-1-inside-1_1267_123)"/>
</svg>
